G04 (Genere par PCBNEW (2007-11-29-a)) le 24/6/2009-01:26:13*
G01*
G70*
G90*
%MOIN*%
G04 Gerber Fmt 3.4, Leading zero omitted, Abs format*
%FSLAX34Y34*%
G04 APERTURE LIST*
%ADD10C,0.044000*%
%ADD11C,0.070000*%
%ADD12R,0.070000X0.070000*%
%ADD13R,0.060000X0.060000*%
%ADD14C,0.060000*%
%ADD15R,0.055000X0.055000*%
%ADD16C,0.055000*%
%ADD17C,0.045000*%
%ADD18C,0.017000*%
G04 APERTURE END LIST*
G54D10*
X66500Y-31000D03*
X65500Y-31000D03*
X64500Y-31000D03*
G54D11*
X73000Y-45000D03*
G54D12*
X73000Y-41000D03*
G54D11*
X65500Y-45000D03*
G54D12*
X65500Y-41000D03*
G54D11*
X58500Y-44500D03*
G54D12*
X58500Y-40500D03*
G54D11*
X51500Y-45000D03*
G54D12*
X51500Y-41000D03*
G54D11*
X44000Y-45000D03*
G54D12*
X44000Y-41000D03*
G54D11*
X37000Y-45500D03*
G54D12*
X37000Y-41500D03*
G54D11*
X28500Y-45000D03*
G54D12*
X28500Y-41000D03*
G54D11*
X21500Y-45000D03*
G54D12*
X21500Y-41000D03*
G54D13*
X69000Y-51000D03*
G54D14*
X70000Y-51000D03*
X71000Y-51000D03*
X72000Y-51000D03*
X73000Y-51000D03*
G54D13*
X34500Y-51000D03*
G54D14*
X35500Y-51000D03*
X36500Y-51000D03*
X37500Y-51000D03*
X38500Y-51000D03*
G54D13*
X30000Y-50500D03*
G54D14*
X29000Y-50500D03*
X28000Y-50500D03*
X27000Y-50500D03*
X26000Y-50500D03*
X25000Y-50500D03*
X24000Y-50500D03*
X23000Y-50500D03*
X22000Y-50500D03*
X69500Y-39000D03*
X68500Y-39000D03*
X67500Y-39000D03*
X68500Y-35000D03*
X68500Y-31000D03*
X61500Y-35000D03*
X61500Y-31000D03*
X45000Y-38000D03*
X45000Y-34000D03*
X22500Y-40000D03*
X22500Y-36000D03*
X72000Y-41000D03*
X72000Y-37000D03*
X64500Y-41000D03*
X64500Y-37000D03*
X57500Y-40500D03*
X57500Y-36500D03*
X43000Y-41000D03*
X43000Y-37000D03*
X36000Y-41500D03*
X36000Y-37500D03*
X27500Y-41000D03*
X27500Y-37000D03*
X20500Y-41000D03*
X20500Y-37000D03*
X50500Y-41000D03*
X50500Y-37000D03*
G54D11*
X77500Y-29000D03*
X77500Y-35000D03*
X49000Y-33000D03*
X43000Y-33000D03*
X34500Y-34000D03*
X28500Y-34000D03*
X26500Y-32500D03*
G54D14*
X20500Y-32500D03*
G54D10*
X74000Y-31000D03*
X73000Y-31000D03*
X72000Y-31000D03*
X59500Y-31000D03*
X58500Y-31000D03*
X57500Y-31000D03*
X52500Y-31000D03*
X51500Y-31000D03*
X50500Y-31000D03*
X45000Y-31000D03*
X44000Y-31000D03*
X43000Y-31000D03*
X38000Y-31000D03*
X37000Y-31000D03*
X36000Y-31000D03*
X30000Y-31000D03*
X29000Y-31000D03*
X28000Y-31000D03*
X22500Y-31000D03*
X21500Y-31000D03*
X20500Y-31000D03*
G54D11*
X73000Y-29000D03*
X74000Y-29000D03*
G54D12*
X75000Y-29000D03*
G54D11*
X65500Y-29000D03*
X66500Y-29000D03*
G54D12*
X67500Y-29000D03*
G54D11*
X58500Y-29000D03*
X59500Y-29000D03*
G54D12*
X60500Y-29000D03*
G54D11*
X51500Y-29000D03*
X52500Y-29000D03*
G54D12*
X53500Y-29000D03*
G54D11*
X44000Y-29000D03*
X45000Y-29000D03*
G54D12*
X46000Y-29000D03*
G54D11*
X36500Y-29000D03*
X37500Y-29000D03*
G54D12*
X38500Y-29000D03*
G54D11*
X29000Y-29000D03*
X30000Y-29000D03*
G54D12*
X31000Y-29000D03*
G54D11*
X21500Y-29000D03*
X22500Y-29000D03*
G54D12*
X23500Y-29000D03*
G54D15*
X72000Y-34500D03*
G54D16*
X72000Y-35500D03*
X73000Y-35500D03*
G54D15*
X64500Y-34500D03*
G54D16*
X64500Y-35500D03*
X65500Y-35500D03*
G54D15*
X57500Y-34000D03*
G54D16*
X57500Y-35000D03*
X58500Y-35000D03*
G54D15*
X50500Y-34500D03*
G54D16*
X50500Y-35500D03*
X51500Y-35500D03*
G54D15*
X43000Y-34500D03*
G54D16*
X43000Y-35500D03*
X44000Y-35500D03*
G54D15*
X36000Y-35000D03*
G54D16*
X36000Y-36000D03*
X37000Y-36000D03*
G54D15*
X28500Y-35000D03*
G54D16*
X28500Y-36000D03*
X29500Y-36000D03*
G54D15*
X20500Y-34000D03*
G54D16*
X20500Y-35000D03*
X21500Y-35000D03*
G54D17*
X53000Y-34000D03*
X67000Y-49500D03*
X59500Y-33500D03*
X62000Y-37000D03*
X69500Y-47500D03*
X30500Y-38000D03*
X32000Y-40000D03*
X32500Y-45000D03*
X46500Y-37000D03*
X38500Y-34000D03*
X39000Y-39000D03*
X34500Y-40000D03*
X32500Y-38000D03*
X32500Y-32500D03*
G54D18*
X68500Y-31000D02*
X66500Y-31000D01*
X68500Y-31000D02*
X68500Y-33500D01*
X68500Y-33500D02*
X69500Y-34500D01*
X69500Y-34500D02*
X69500Y-36000D01*
X69500Y-36000D02*
X71500Y-38000D01*
X71500Y-38000D02*
X72500Y-38000D01*
X72500Y-38000D02*
X74000Y-36500D01*
X74000Y-36500D02*
X74000Y-31000D01*
X65500Y-29000D02*
X65500Y-31000D01*
X65500Y-31000D02*
X65500Y-35500D01*
X28500Y-35000D02*
X28500Y-34000D01*
X43000Y-34500D02*
X43000Y-33000D01*
X20500Y-31000D02*
X20500Y-32500D01*
X20500Y-32500D02*
X20500Y-34000D01*
X43000Y-33000D02*
X43000Y-31000D01*
X57500Y-34000D02*
X57500Y-31000D01*
X64500Y-34500D02*
X64500Y-31000D01*
X72000Y-34500D02*
X72000Y-31000D01*
X50500Y-34500D02*
X50500Y-31000D01*
X36000Y-35000D02*
X36000Y-31000D01*
X28500Y-34000D02*
X28500Y-31500D01*
X28500Y-31500D02*
X28000Y-31000D01*
X72000Y-34500D02*
X71500Y-34000D01*
X71500Y-34000D02*
X71500Y-32500D01*
X71500Y-32500D02*
X69000Y-30000D01*
X69000Y-30000D02*
X68000Y-30000D01*
X68000Y-30000D02*
X67500Y-30500D01*
X67500Y-30500D02*
X66000Y-30500D01*
X66000Y-30500D02*
X66000Y-31500D01*
X66000Y-31500D02*
X66500Y-32000D01*
X66500Y-32000D02*
X66500Y-39500D01*
X66500Y-39500D02*
X67000Y-40000D01*
X67000Y-40000D02*
X70500Y-40000D01*
X70500Y-40000D02*
X72000Y-38500D01*
X72000Y-38500D02*
X73000Y-38500D01*
X73000Y-38500D02*
X76500Y-35000D01*
X76500Y-35000D02*
X77500Y-35000D01*
X57500Y-31000D02*
X57000Y-31000D01*
X57000Y-31000D02*
X57000Y-32500D01*
X57000Y-32500D02*
X56500Y-33000D01*
X56500Y-33000D02*
X56500Y-37000D01*
X56500Y-37000D02*
X57000Y-37500D01*
X57000Y-37500D02*
X58000Y-37500D01*
X58000Y-37500D02*
X60500Y-35000D01*
X60500Y-35000D02*
X60500Y-34500D01*
X60500Y-34500D02*
X64000Y-31000D01*
X64000Y-31000D02*
X64500Y-31000D01*
X50500Y-31000D02*
X50000Y-31000D01*
X50000Y-31000D02*
X50000Y-33500D01*
X50000Y-33500D02*
X49500Y-33500D01*
X49500Y-33500D02*
X49500Y-37500D01*
X49500Y-37500D02*
X50000Y-38000D01*
X50000Y-38000D02*
X51000Y-38000D01*
X51000Y-38000D02*
X56000Y-33000D01*
X56000Y-33000D02*
X56000Y-32500D01*
X56000Y-32500D02*
X56500Y-32000D01*
X56500Y-32000D02*
X56500Y-30500D01*
X56500Y-30500D02*
X57500Y-30500D01*
X57500Y-30500D02*
X57500Y-31000D01*
X36000Y-31000D02*
X35500Y-31000D01*
X35500Y-31000D02*
X35500Y-31500D01*
X35500Y-31500D02*
X33500Y-33500D01*
X33500Y-33500D02*
X33500Y-34500D01*
X33500Y-34500D02*
X35000Y-36000D01*
X35000Y-36000D02*
X35000Y-38000D01*
X35000Y-38000D02*
X35500Y-38500D01*
X35500Y-38500D02*
X36500Y-38500D01*
X36500Y-38500D02*
X42000Y-33000D01*
X42000Y-33000D02*
X42000Y-32500D01*
X42000Y-32500D02*
X42500Y-32000D01*
X42500Y-32000D02*
X42500Y-31000D01*
X42500Y-31000D02*
X43000Y-31000D01*
X20500Y-31000D02*
X20000Y-31000D01*
X20000Y-31000D02*
X20000Y-31500D01*
X20000Y-31500D02*
X19500Y-32000D01*
X19500Y-32000D02*
X19500Y-37500D01*
X19500Y-37500D02*
X20000Y-38000D01*
X20000Y-38000D02*
X21000Y-38000D01*
X21000Y-38000D02*
X22000Y-37000D01*
X22000Y-37000D02*
X23000Y-37000D01*
X23000Y-37000D02*
X26500Y-33500D01*
X26500Y-33500D02*
X27000Y-33500D01*
X27000Y-33500D02*
X28000Y-32500D01*
X28000Y-32500D02*
X28000Y-31000D01*
X28500Y-35000D02*
X26000Y-35000D01*
X26000Y-35000D02*
X23500Y-37500D01*
X23500Y-37500D02*
X22500Y-37500D01*
X22500Y-37500D02*
X19500Y-40500D01*
X19500Y-40500D02*
X19500Y-41500D01*
X19500Y-41500D02*
X20500Y-42500D01*
X20500Y-42500D02*
X20500Y-45500D01*
X20500Y-45500D02*
X21000Y-46000D01*
X21000Y-46000D02*
X21000Y-51000D01*
X21000Y-51000D02*
X21500Y-51500D01*
X21500Y-51500D02*
X29500Y-51500D01*
X29500Y-51500D02*
X30000Y-51000D01*
X30000Y-51000D02*
X30000Y-50500D01*
X29000Y-50500D02*
X29000Y-48500D01*
X73000Y-48500D02*
X73000Y-45000D01*
X29000Y-48500D02*
X73000Y-48500D01*
X72000Y-41000D02*
X73000Y-41000D01*
X28000Y-50500D02*
X28000Y-48000D01*
X65500Y-48000D02*
X65500Y-45000D01*
X28000Y-48000D02*
X65500Y-48000D01*
X64500Y-41000D02*
X65500Y-41000D01*
X27000Y-50500D02*
X27000Y-47500D01*
X58500Y-47500D02*
X58500Y-44500D01*
X27000Y-47500D02*
X58500Y-47500D01*
X57500Y-40500D02*
X58500Y-40500D01*
X26000Y-50500D02*
X26000Y-47000D01*
X51500Y-47000D02*
X51500Y-45000D01*
X26000Y-47000D02*
X51500Y-47000D01*
X50500Y-41000D02*
X51500Y-41000D01*
X25000Y-50500D02*
X25000Y-46500D01*
X44000Y-46500D02*
X44000Y-45000D01*
X25000Y-46500D02*
X44000Y-46500D01*
X43000Y-41000D02*
X44000Y-41000D01*
X24000Y-50500D02*
X24000Y-46000D01*
X37000Y-46000D02*
X37000Y-45500D01*
X24000Y-46000D02*
X37000Y-46000D01*
X36000Y-41500D02*
X37000Y-41500D01*
X23000Y-50500D02*
X23000Y-45000D01*
X23000Y-45000D02*
X28500Y-45000D01*
X27500Y-41000D02*
X28500Y-41000D01*
X22000Y-50500D02*
X22000Y-45500D01*
X22000Y-45500D02*
X21500Y-45000D01*
X20500Y-41000D02*
X21500Y-41000D01*
X68500Y-35000D02*
X68500Y-39000D01*
X61500Y-35000D02*
X58500Y-38000D01*
X58500Y-38000D02*
X52000Y-38000D01*
X52000Y-38000D02*
X51500Y-38500D01*
X51500Y-38500D02*
X49500Y-38500D01*
X49500Y-38500D02*
X49000Y-38000D01*
X49000Y-38000D02*
X45000Y-38000D01*
X45000Y-38000D02*
X38000Y-38000D01*
X38000Y-38000D02*
X37000Y-39000D01*
X37000Y-39000D02*
X23500Y-39000D01*
X23500Y-39000D02*
X22500Y-40000D01*
X52500Y-29000D02*
X52500Y-30000D01*
X52500Y-30000D02*
X53000Y-30500D01*
X53000Y-30500D02*
X53000Y-34000D01*
X67000Y-49500D02*
X69500Y-49500D01*
X69500Y-49500D02*
X70000Y-50000D01*
X70000Y-50000D02*
X70000Y-51000D01*
X59500Y-29000D02*
X59500Y-30000D01*
X59500Y-30000D02*
X59000Y-30500D01*
X59000Y-30500D02*
X59000Y-31500D01*
X59000Y-31500D02*
X59500Y-32000D01*
X59500Y-32000D02*
X59500Y-33500D01*
X62000Y-37000D02*
X63500Y-38500D01*
X63500Y-38500D02*
X63500Y-41500D01*
X63500Y-41500D02*
X69500Y-47500D01*
X74000Y-29000D02*
X74000Y-30000D01*
X74000Y-30000D02*
X78500Y-34500D01*
X78500Y-34500D02*
X78500Y-35500D01*
X78500Y-35500D02*
X74000Y-40000D01*
X74000Y-40000D02*
X74000Y-45500D01*
X74000Y-45500D02*
X73500Y-46000D01*
X73500Y-46000D02*
X73500Y-49000D01*
X73500Y-49000D02*
X73000Y-49500D01*
X73000Y-49500D02*
X73000Y-51000D01*
X30000Y-29000D02*
X30000Y-30000D01*
X30000Y-30000D02*
X30500Y-30500D01*
X30500Y-30500D02*
X30500Y-38000D01*
X32000Y-40000D02*
X32500Y-40500D01*
X32500Y-40500D02*
X32500Y-45000D01*
X45000Y-29000D02*
X45000Y-30000D01*
X45000Y-30000D02*
X45500Y-30500D01*
X45500Y-30500D02*
X45500Y-33000D01*
X45500Y-33000D02*
X46000Y-33500D01*
X46000Y-33500D02*
X46000Y-36500D01*
X46000Y-36500D02*
X46500Y-37000D01*
X59500Y-31000D02*
X61500Y-31000D01*
X45000Y-31000D02*
X45000Y-34000D01*
X22500Y-31000D02*
X22500Y-36000D01*
X72000Y-35500D02*
X72000Y-37000D01*
X64500Y-35500D02*
X64500Y-37000D01*
X57500Y-35000D02*
X57500Y-36500D01*
X43000Y-35500D02*
X43000Y-37000D01*
X36000Y-36000D02*
X36000Y-37500D01*
X28500Y-36000D02*
X27500Y-37000D01*
X20500Y-35000D02*
X20500Y-37000D01*
X50500Y-35500D02*
X50500Y-37000D01*
X75000Y-29000D02*
X77500Y-29000D01*
X38500Y-29000D02*
X38500Y-34000D01*
X39000Y-39000D02*
X38000Y-39000D01*
X38000Y-39000D02*
X37500Y-39500D01*
X37500Y-39500D02*
X35000Y-39500D01*
X35000Y-39500D02*
X34500Y-40000D01*
X32500Y-38000D02*
X32500Y-32500D01*
X23500Y-29000D02*
X23500Y-29500D01*
X23500Y-29500D02*
X26500Y-32500D01*
X73000Y-29000D02*
X73000Y-31000D01*
X73000Y-31000D02*
X73000Y-35500D01*
X58500Y-29000D02*
X58500Y-31000D01*
X58500Y-31000D02*
X58500Y-35000D01*
X51500Y-29000D02*
X51500Y-31000D01*
X51500Y-31000D02*
X51500Y-35500D01*
X44000Y-29000D02*
X44000Y-31000D01*
X44000Y-31000D02*
X44000Y-35500D01*
X36500Y-29000D02*
X36500Y-30500D01*
X36500Y-30500D02*
X37000Y-31000D01*
X37000Y-31000D02*
X37000Y-36000D01*
X29000Y-29000D02*
X29000Y-31000D01*
X29000Y-31000D02*
X29000Y-33000D01*
X29000Y-33000D02*
X29500Y-33500D01*
X29500Y-33500D02*
X29500Y-36000D01*
X21500Y-29000D02*
X21500Y-31000D01*
X21500Y-31000D02*
X21500Y-35000D01*
M02*
